<?xml version="1.0" encoding="utf-8"?>
<!-- Generator: Adobe Illustrator 23.0.4, SVG Export Plug-In . SVG Version: 6.00 Build 0)  -->
<svg version="1.1" id="Capa_1" xmlns="http://www.w3.org/2000/svg" xmlns:xlink="http://www.w3.org/1999/xlink" x="0px" y="0px"
	 viewBox="0 0 936.85 224.42" style="enable-background:new 0 0 936.85 224.42;" xml:space="preserve">
<title>Logo</title>
<path d="M94.97,72.77c-4.03-4.96-9.32-8.74-15.32-10.94c-6.39-2.47-14.54-3.7-24.45-3.7c-8.9-0.02-17.73,1.46-26.13,4.39
	c-8.2,2.8-15.72,7.29-22.08,13.18l18,18.48c3.45-3.94,7.62-7.19,12.28-9.58c4.73-2.36,9.95-3.56,15.24-3.49
	c5.54-0.11,10.93,1.77,15.21,5.29c4.28,3.54,6.42,8.31,6.42,14.31c-4.67,0-9.74,0.08-15.21,0.23c-5.49,0.15-10.98,0.6-16.42,1.35
	c-5.39,0.74-10.72,1.93-15.92,3.54c-4.87,1.47-9.48,3.71-13.63,6.65c-3.94,2.81-7.18,6.49-9.45,10.76c-2.33,4.36-3.5,9.69-3.49,16
	c-0.11,5.06,0.97,10.08,3.16,14.65c2.03,4.12,4.96,7.74,8.56,10.59c3.72,2.91,7.96,5.09,12.5,6.42c4.79,1.43,9.76,2.15,14.76,2.14
	c6.76,0.03,13.46-1.27,19.72-3.83c6.2-2.52,11.45-6.94,15-12.62h0.45v13.75h31.09v-55.66c0.1-8.13-0.66-16.25-2.25-24.22
	C101.74,84.02,98.99,77.96,94.97,72.77z M74.13,129.55c0.07,3.13-0.66,6.23-2.14,9c-1.4,2.52-3.37,4.68-5.75,6.3
	c-2.52,1.71-5.29,3-8.22,3.83c-3.11,0.91-6.34,1.37-9.58,1.36c-3.8-0.01-7.53-1.02-10.81-2.93c-3.33-1.74-5.35-5.25-5.18-9
	c-0.17-3.34,1.19-6.58,3.71-8.78c2.64-2.19,5.7-3.8,9-4.73c3.58-1.06,7.27-1.7,11-1.92c3.83-0.22,7-0.34,9.57-0.34h8.34
	L74.13,129.55z"/>
<path d="M588.51,28.39h-33.8v32.44h-21.62v27h21.63v52.05c-0.17,5.27,0.86,10.5,3,15.32c1.92,4.07,4.82,7.59,8.45,10.25
	c3.79,2.72,8.08,4.67,12.62,5.75c5.16,1.24,10.46,1.85,15.77,1.8c3.99-0.01,7.98-0.23,11.94-0.68c4-0.44,7.93-1.34,11.72-2.7v-28.13
	c-1.9,1.52-4.22,2.43-6.65,2.6c-2.35,0.33-4.72,0.52-7.09,0.56c-2.96,0.12-5.92-0.38-8.68-1.47c-2.02-0.83-3.71-2.29-4.84-4.16
	c-1.1-1.98-1.78-4.17-2-6.43c-0.31-2.73-0.46-5.47-0.45-8.22V87.83h29.74v-27h-29.74V28.39z"/>
<rect x="635.83" y="60.84" width="33.8" height="109.5"/>
<path d="M652.73,6.76c-10.82,0.01-19.59,8.78-19.6,19.6c0.24,10.83,9.22,19.41,20.05,19.16c10.48-0.24,18.93-8.68,19.16-19.16
	C672.33,15.53,663.56,6.76,652.73,6.76L652.73,6.76z"/>
<path d="M793.89,73.83c-5.62-5.13-12.21-9.09-19.38-11.65c-15.39-5.4-32.16-5.4-47.55,0c-7.16,2.56-13.74,6.52-19.36,11.65
	c-5.54,5.08-9.97,11.26-13,18.14c-3.23,7.46-4.85,15.52-4.73,23.65c-0.12,8.13,1.5,16.2,4.73,23.66c3.03,6.88,7.46,13.06,13,18.14
	c5.62,5.12,12.21,9.06,19.37,11.6c15.39,5.41,32.16,5.41,47.55,0c7.16-2.54,13.75-6.48,19.37-11.6c5.54-5.09,9.96-11.26,13-18.14
	c3.23-7.46,4.85-15.53,4.73-23.66c0.12-8.13-1.5-16.19-4.73-23.65C803.85,85.09,799.43,78.92,793.89,73.83z M770.69,135.68
	c-4.74,5.11-11.39,7.66-19.94,7.66s-15.22-2.55-20-7.66c-4.73-5.11-7.1-11.8-7.09-20.06c0.01-8.26,2.37-14.93,7.09-20
	c4.74-5.11,11.41-7.67,20-7.66s15.24,2.56,19.94,7.66c4.73,5.11,7.1,11.78,7.09,20s-2.37,14.89-7.09,20.02V135.68z"/>
<path d="M929.31,73c-3-4.72-7.25-8.5-12.28-10.93c-5.26-2.63-12.17-3.94-20.73-3.94c-3.81-0.03-7.61,0.5-11.27,1.57
	c-3.24,0.96-6.34,2.33-9.24,4.06c-2.58,1.55-4.93,3.44-7,5.63c-1.8,1.88-3.31,4-4.51,6.31h-0.45V60.83h-32.42v109.51h33.79v-54.51
	c-0.01-3.47,0.22-6.93,0.68-10.37c0.39-3.11,1.35-6.13,2.82-8.9c1.44-2.64,3.58-4.82,6.19-6.31c2.71-1.57,6.23-2.36,10.59-2.36
	s7.7,0.9,10,2.7c2.34,1.82,4.13,4.24,5.18,7c1.15,2.99,1.82,6.15,2,9.35c0.22,3.38,0.34,6.65,0.34,9.8v53.63h33.79v-60.42
	c0.04-6.86-0.48-13.72-1.57-20.5C934.36,83.63,932.35,78.04,929.31,73z"/>
<path d="M485.51,75.25h-0.45c-1.56-2.2-3.38-4.22-5.41-6c-2.46-2.17-5.19-4.02-8.11-5.52c-7.38-3.8-15.58-5.73-23.88-5.63
	c-7.29-0.13-14.5,1.53-21,4.84c-6.03,3.13-11.36,7.46-15.66,12.73c-2.53,3.18-4.71,6.64-6.49,10.3c7.57,19.37,7.93,40.81,1,60.42
	c1.93,3.39,4.25,6.55,6.91,9.41c4.78,5.06,10.57,9.06,17,11.72c7.01,2.86,14.52,4.28,22.09,4.17c5.6-0.1,11.13-1.2,16.33-3.27
	c5.83-2.22,10.89-6.09,14.54-11.15h0.45v10.56c0,7.81-2.44,14.23-7.33,19.26c-4.89,5.03-12.51,7.54-22.87,7.55
	c-6.53,0.07-13-1.24-19-3.83c-5.98-2.67-11.55-6.16-16.57-10.37l-18.7,27.94c7.64,6.17,16.58,10.53,26.15,12.76
	c9.46,2.18,19.13,3.28,28.84,3.27c21.33,0,37.22-5.37,47.65-16.11s15.65-26.47,15.66-47.2V60.83h-31.15V75.25z M483.51,125.16
	c-1.33,3.2-3.28,6.11-5.74,8.56c-2.51,2.51-5.45,4.54-8.68,6c-6.78,3.01-14.51,3.01-21.29,0c-3.19-1.48-6.08-3.51-8.56-6
	c-10.39-10.37-10.41-27.2-0.04-37.59c0.01-0.01,0.03-0.03,0.04-0.04c2.48-2.49,5.38-4.52,8.56-6c6.78-3,14.51-3,21.29,0
	c3.23,1.46,6.17,3.49,8.68,6C485.37,103.74,487.63,115.2,483.51,125.16z"/>
<path d="M207.51,72.55h-0.45c-3.76-5.15-8.99-9.04-15-11.16c-6.33-2.21-13-3.32-19.71-3.26c-7.29-0.13-14.5,1.53-21,4.84
	c-6.08,3.17-11.42,7.61-15.66,13c-4.37,5.57-7.72,11.86-9.91,18.59c-2.35,7.1-3.53,14.53-3.49,22c-0.09,7.75,1.21,15.46,3.83,22.76
	c2.39,6.65,6.1,12.74,10.92,17.91c4.77,5.07,10.57,9.06,17,11.72c7.01,2.86,14.51,4.28,22.08,4.17c3.7,0.01,7.38-0.53,10.93-1.58
	c3.37-0.97,6.61-2.31,9.68-4c2.76-1.54,5.33-3.39,7.66-5.52c1.98-1.8,3.75-3.82,5.3-6h0.45v14.42h31.17V145.7
	c-6.29-18.28-6.29-38.14,0-56.42V0h-33.8V72.55z M203.11,135.64c-4.73,5.11-11.38,7.66-19.94,7.66c-8.56,0-15.21-2.55-19.94-7.66
	c-4.73-5.11-7.09-11.8-7.1-20.06s2.36-14.93,7.1-20c4.73-5.11,11.38-7.67,19.94-7.66c8.56,0.01,15.21,2.56,19.94,7.66
	c4.73,5.11,7.09,11.78,7.1,20S207.85,130.49,203.11,135.64L203.11,135.64z"/>
<path d="M386.27,120.99l-0.33-1.21v1.25c0,0.4,0,0.9,0,1.48c0,0.29-0.05,0.61-0.07,0.94s0,0.68-0.09,1
	c-0.19,1.76-0.56,3.49-1.1,5.17c-0.68,2.14-1.63,4.19-2.84,6.08c-1.39,2.19-3.12,4.14-5.14,5.77c-2.17,1.77-4.7,3.04-7.41,3.74
	c-0.69,0.17-1.39,0.3-2.1,0.39c-0.36,0.05-0.72,0.06-1.07,0.09s-0.68,0-1,0c-0.15,0-0.38,0-0.58,0h-0.63h-0.21h-0.26l-0.53-0.07
	c-0.35,0-0.69-0.14-1-0.2s-0.69-0.2-1-0.29c-2.86-1-5.46-2.64-7.6-4.8c-2.29-2.24-4.28-4.77-5.93-7.51
	c-0.83-1.37-1.61-2.77-2.29-4.19c-0.68-1.42-1.29-2.86-1.83-4.3c-0.52-1.4-0.97-2.84-1.33-4.29c-0.08-0.35-0.18-0.71-0.24-1
	s-0.14-0.66-0.2-1c-0.12-0.75-0.23-1.49-0.35-2.22c-0.47-3-1.06-5.76-1.66-8.3c-1.2-5.08-2.47-9.23-3.41-12.12
	c-0.46-1.45-0.88-2.57-1.14-3.34s-0.44-1.17-0.44-1.17s0.05,0.43,0.15,1.24s0.22,2,0.41,3.49l0.65,5.42c0.25,2.08,0.53,4.43,0.8,7
	s0.55,5.33,0.74,8.23c0.07,1.58,0.22,3.16,0.47,4.73c0.28,1.66,0.67,3.29,1.16,4.9c1.01,3.35,2.4,6.58,4.15,9.61
	c1.8,3.2,4.05,6.13,6.67,8.7c2.73,2.72,6.08,4.74,9.76,5.89c0.48,0.11,0.94,0.26,1.43,0.35s1,0.19,1.44,0.23l0.73,0.07h0.37h1
	c0.21,0,0.4,0,0.67,0c0.49,0,1,0,1.47-0.09s0.93-0.1,1.39-0.19c0.9-0.16,1.79-0.38,2.67-0.65c3.28-1.06,6.27-2.86,8.74-5.26
	c3.95-3.85,6.53-8.89,7.34-14.35c0.28-1.86,0.34-3.74,0.17-5.61C386.77,123.38,386.57,122.17,386.27,120.99z"/>
<path d="M323.51,44.76c-40.17,0-72.74,32.57-72.74,72.74s32.57,72.74,72.74,72.74s72.74-32.57,72.74-72.74c0,0,0-0.01,0-0.01
	C396.21,77.34,363.66,44.8,323.51,44.76z M350.51,181.76c-6.9-12.9-15.7-28.56-20.21-33.4c-8.06-8.69-11.51-9.53-11.51-9.53
	s-6.09,4.82-17.69,3.7c0,0-11.09,2-21.36-2.93s-11.23-16.09-11.23-16.09s-3.86-4.88-1-8.75c1.53-2.23,4.1-3.52,6.81-3.41
	c3.07-2.47,6.57-4.34,10.33-5.52c6.57-2.23,10.9-3.27,12.57-8.17s-0.71-5.41,7.93-13s25.91-13.37,39.3-10.48
	s16.76,10.14,16.76,10.14s19,11.5,25.09,22.17c3,5.21,4.87,9.53,6.92,13.26c-0.89,27.26-17.57,51.5-42.71,62.08V181.76z"/>
</svg>
